<svg width="32" height="32" viewBox="0 0 32 32" fill="none" xmlns="http://www.w3.org/2000/svg">
<rect width="32" height="32" fill="url(#paint0_linear_60300_85599)"/>
<path d="M12.3791 9.00956C12.9055 8.86193 13.4584 8.78694 14.0383 8.7869H22.5177V12.6287H14.5617C14.2344 12.6287 13.9309 12.7121 13.6554 12.8758C13.3799 13.0395 13.1723 13.2594 13.0246 13.5349C12.8769 13.8104 12.8049 14.1099 12.8049 14.4412C12.8049 14.7727 12.8768 15.0729 13.0246 15.3484C13.1723 15.6039 13.38 15.8156 13.6554 15.9793C13.9309 16.1429 14.2304 16.2263 14.5617 16.2264H17.6613C18.8871 16.2264 19.9455 16.4661 20.8439 16.9412C21.7584 17.3964 22.461 18.0479 22.9562 18.8904C23.4674 19.713 23.7237 20.6835 23.7238 21.7976C23.7238 23.1155 23.46 24.2381 22.9289 25.1726C22.4177 26.0872 21.7225 26.7897 20.8439 27.2849C19.9653 27.7602 18.995 27.9998 17.9367 27.9998H9.07438L9.07829 27.9959V24.1541H17.2814C17.6488 24.1541 17.9763 24.0623 18.2677 23.8787C18.5593 23.695 18.7915 23.4594 18.9552 23.1639C19.1389 22.8723 19.2306 22.5523 19.2306 22.2049C19.2306 21.8376 19.1389 21.51 18.9552 21.2185C18.7915 20.9271 18.5632 20.6874 18.2677 20.5037C17.9763 20.3201 17.6447 20.2283 17.2814 20.2283H14.3185C13.2043 20.2283 12.1852 20.0084 11.2707 19.5691C10.3563 19.1298 9.62543 18.4908 9.07438 17.6482C8.54332 16.7896 8.27946 15.763 8.27946 14.5769C8.27952 13.391 8.53499 12.3926 9.04606 11.5301C9.09139 11.4539 9.14043 11.3805 9.18864 11.3074C9.95466 10.1214 10.967 9.35111 12.3791 9.00956ZM11.8009 1.86014C12.18 1.58607 12.7031 1.63795 13.0187 1.98026C13.3625 2.3534 13.3374 2.93587 12.9621 3.28104L14.4943 7.03495C14.2119 7.00123 13.9244 6.98222 13.633 6.98221C10.0358 6.98231 7.0556 9.62443 6.52751 13.074L3.26188 10.2644C2.85068 10.4903 2.33675 10.3739 2.0656 9.99393C1.77037 9.57962 1.86791 9.00261 2.28435 8.70585C2.70074 8.40917 3.27818 8.50454 3.57341 8.91874C3.59403 8.94987 3.61245 8.98289 3.62907 9.01639L6.59294 8.53104L6.55876 5.45682C6.41963 5.46601 6.28045 5.44348 6.15153 5.39139C5.67934 5.20014 5.45322 4.66263 5.64665 4.19022C5.84038 3.71782 6.38048 3.49007 6.8527 3.68143C7.32475 3.87268 7.55121 4.41025 7.35759 4.8826L10.2619 5.88944L11.6623 3.23319C11.6359 3.2068 11.611 3.17856 11.5881 3.14921C11.2914 2.73621 11.3864 2.15921 11.8009 1.86014Z" fill="#FFFF00"/>
<defs>
<linearGradient id="paint0_linear_60300_85599" x1="-4" y1="5.81818" x2="37.8182" y2="25.4545" gradientUnits="userSpaceOnUse">
<stop stop-color="#420A3D"/>
<stop offset="1" stop-color="#1B042E"/>
</linearGradient>
</defs>
</svg>
